# xmcd
#
# Track frame offsets: 
#        150
#        16690
#        33094
#        45161
#        64490
#        87373
#        99301
#        110804
#        123063
#        134706
#        148365
#        167640
#        191228
#        201858
#        213852
#        224606
#        239104
#        252276
#        264708
#        283085
#        296098
#        318314
#        335253
#
# Disc length: 4669 seconds
#
# Revision: 2
# Processed by: cddbd v1.5.2PL0 Copyright (c) Steve Scherf et al.
# Submitted via: ExactAudioCopyFreeDBPlugin 1.0
#
DISCID=6d123b17
DTITLE=Townes Van Zandt - Legend Disc One
DYEAR=2003
DGENRE=Americana
TTITLE0=If I Needed You
TTITLE1=Pancho And Lefty
TTITLE2=Snow Don't Fall
TTITLE3=No Lonesome Tune
TTITLE4=Silver Ships Of Andilar
TTITLE5=Heavenly Houseboat Blues
TTITLE6=Be Here To Love Me
TTITLE7=Kathleen
TTITLE8=Snake Mountain Blues
TTITLE9=St John The Gambler
TTITLE10=Our Mother The Mountain
TTITLE11=For The Sake Of The Song
TTITLE12=None But The Rain
TTITLE13=Waiting Around To Die
TTITLE14=Lungs
TTITLE15=Colorado Girl
TTITLE16=I'll Be Here In The Morning
TTITLE17=Nothin
TTITLE18=Tower Song
TTITLE19=Come Tomorrow
TTITLE20=Marie (with Willie Nelson)
TTITLE21=Pancho And Lefty (with Freddy Fender)
TTITLE22=If I Needed You (with Emmylou Harris)
EXTD=YEAR: 2003
EXTT0=
EXTT1=
EXTT2=
EXTT3=
EXTT4=
EXTT5=
EXTT6=
EXTT7=
EXTT8=
EXTT9=
EXTT10=
EXTT11=
EXTT12=
EXTT13=
EXTT14=
EXTT15=
EXTT16=
EXTT17=
EXTT18=
EXTT19=
EXTT20=
EXTT21=
EXTT22=
PLAYORDER=
